<svg viewBox="0 0 24 24" xmlns="http://www.w3.org/2000/svg">
  <path
     id="HighlightColor"
     d="M 11.5 1 C 11.241511 1 10.982077 1.1752136 11 1.5253906 L 11.001953 7.3027344 L 8.8574219 5.1542969 C 8.5402829 4.8287779 7.9885 5.061307 8 5.515625 C 8.0041 5.645673 8.0587537 5.768995 8.1523438 5.859375 L 11.064453 8.7753906 C 11.225102 8.9486796 11.330882 8.9984 11.5 9 C 11.669118 8.9984 11.774948 8.9486796 11.935547 8.7753906 L 14.847656 5.859375 C 14.94125 5.768995 14.9959 5.645673 15 5.515625 C 15.011504 5.061307 14.459717 4.8287779 14.142578 5.1542969 L 11.998047 7.3027344 L 12 1.5253906 C 12.01795 1.1752136 11.758489 1 11.5 1 z M 11.5 15 C 11.330882 15.0016 11.225102 15.05132 11.064453 15.224609 L 8.1523438 18.140625 C 8.0587537 18.231005 8.0041 18.354327 8 18.484375 C 7.9885 18.938693 8.5402829 19.171222 8.8574219 18.845703 L 11.001953 16.697266 L 11 22.474609 C 10.982077 22.824786 11.241511 23 11.5 23 C 11.758489 23 12.01795 22.824786 12 22.474609 L 11.998047 16.697266 L 14.142578 18.845703 C 14.459717 19.171222 15.011504 18.938693 15 18.484375 C 14.9959 18.354327 14.94125 18.231005 14.847656 18.140625 L 11.935547 15.224609 C 11.774948 15.05132 11.669118 15.0016 11.5 15 z "
     fill="#1e8bcd"
   />
  <path
     id="TextColor-Line"
     d="M 3.5,10.5 H 20.5"
	 stroke="#000000"
     stroke-width="1px"
	 stroke-linecap="round" 
	 />
  <path
     id="TextColor-Line"
     d="m 3.5,12.5 h 10"
	 stroke="#000000"
     stroke-width="1px"
	 stroke-linecap="round" 
	 />
</svg>
